<mxfile host="app.diagrams.net" modified="2022-08-30T15:35:58.760Z" agent="5.0 (Windows NT 10.0; Win64; x64) AppleWebKit/537.36 (KHTML, like Gecko) Chrome/104.0.0.0 Safari/537.36" etag="MkTWPqor1InRZlaMTc-c" version="20.2.7" type="github">
  <diagram id="Spm0ucjE1Vnos5P3Ht3a" name="PÃ¡gina-1">
    <mxGraphModel dx="2374" dy="1133" grid="1" gridSize="10" guides="1" tooltips="1" connect="1" arrows="1" fold="1" page="1" pageScale="1" pageWidth="827" pageHeight="1169" math="0" shadow="0">
      <root>
        <mxCell id="0" />
        <mxCell id="1" parent="0" />
        <mxCell id="R8buzvKy0wzdD9ak6jDf-3" style="edgeStyle=orthogonalEdgeStyle;rounded=0;orthogonalLoop=1;jettySize=auto;html=1;entryX=0.5;entryY=0;entryDx=0;entryDy=0;" edge="1" parent="1" source="R8buzvKy0wzdD9ak6jDf-1" target="R8buzvKy0wzdD9ak6jDf-2">
          <mxGeometry relative="1" as="geometry" />
        </mxCell>
        <mxCell id="R8buzvKy0wzdD9ak6jDf-1" value="INICIO" style="ellipse;whiteSpace=wrap;html=1;" vertex="1" parent="1">
          <mxGeometry x="354" y="20" width="120" height="80" as="geometry" />
        </mxCell>
        <mxCell id="R8buzvKy0wzdD9ak6jDf-8" style="edgeStyle=orthogonalEdgeStyle;rounded=0;orthogonalLoop=1;jettySize=auto;html=1;entryX=0.5;entryY=0;entryDx=0;entryDy=0;" edge="1" parent="1" source="R8buzvKy0wzdD9ak6jDf-2" target="R8buzvKy0wzdD9ak6jDf-6">
          <mxGeometry relative="1" as="geometry" />
        </mxCell>
        <mxCell id="R8buzvKy0wzdD9ak6jDf-2" value="NUMERO1(INT),CONTADOR(INT),RESULTADO(INT)" style="rounded=0;whiteSpace=wrap;html=1;" vertex="1" parent="1">
          <mxGeometry x="239" y="120" width="350" height="60" as="geometry" />
        </mxCell>
        <mxCell id="R8buzvKy0wzdD9ak6jDf-11" style="edgeStyle=orthogonalEdgeStyle;rounded=0;orthogonalLoop=1;jettySize=auto;html=1;entryX=0.5;entryY=0;entryDx=0;entryDy=0;" edge="1" parent="1" source="R8buzvKy0wzdD9ak6jDf-6" target="R8buzvKy0wzdD9ak6jDf-9">
          <mxGeometry relative="1" as="geometry" />
        </mxCell>
        <mxCell id="R8buzvKy0wzdD9ak6jDf-6" value="CONTADOR=1 , RESULTADO=0" style="shape=parallelogram;html=1;strokeWidth=2;perimeter=parallelogramPerimeter;whiteSpace=wrap;rounded=1;arcSize=12;size=0.23;" vertex="1" parent="1">
          <mxGeometry x="239" y="200" width="350" height="60" as="geometry" />
        </mxCell>
        <mxCell id="R8buzvKy0wzdD9ak6jDf-14" style="edgeStyle=orthogonalEdgeStyle;rounded=0;orthogonalLoop=1;jettySize=auto;html=1;" edge="1" parent="1" source="R8buzvKy0wzdD9ak6jDf-9" target="R8buzvKy0wzdD9ak6jDf-12">
          <mxGeometry relative="1" as="geometry" />
        </mxCell>
        <mxCell id="R8buzvKy0wzdD9ak6jDf-9" value="&quot;INGRESE EL NUMERO DEL QUE QUIERES CONOCER LA TABLA DE MULTIPLICAR&quot;" style="shape=document;whiteSpace=wrap;html=1;boundedLbl=1;" vertex="1" parent="1">
          <mxGeometry x="300" y="290" width="230" height="80" as="geometry" />
        </mxCell>
        <mxCell id="R8buzvKy0wzdD9ak6jDf-16" style="edgeStyle=orthogonalEdgeStyle;rounded=0;orthogonalLoop=1;jettySize=auto;html=1;entryX=0.5;entryY=0;entryDx=0;entryDy=0;" edge="1" parent="1" source="R8buzvKy0wzdD9ak6jDf-12" target="R8buzvKy0wzdD9ak6jDf-15">
          <mxGeometry relative="1" as="geometry" />
        </mxCell>
        <mxCell id="R8buzvKy0wzdD9ak6jDf-12" value="NUMERO1" style="shape=parallelogram;html=1;strokeWidth=2;perimeter=parallelogramPerimeter;whiteSpace=wrap;rounded=1;arcSize=12;size=0.23;" vertex="1" parent="1">
          <mxGeometry x="319" y="400" width="190" height="50" as="geometry" />
        </mxCell>
        <mxCell id="R8buzvKy0wzdD9ak6jDf-18" style="edgeStyle=orthogonalEdgeStyle;rounded=0;orthogonalLoop=1;jettySize=auto;html=1;entryX=0.5;entryY=0;entryDx=0;entryDy=0;" edge="1" parent="1" source="R8buzvKy0wzdD9ak6jDf-15" target="R8buzvKy0wzdD9ak6jDf-27">
          <mxGeometry relative="1" as="geometry">
            <mxPoint x="660" y="930" as="targetPoint" />
          </mxGeometry>
        </mxCell>
        <mxCell id="R8buzvKy0wzdD9ak6jDf-19" value="NO" style="edgeLabel;html=1;align=center;verticalAlign=middle;resizable=0;points=[];" vertex="1" connectable="0" parent="R8buzvKy0wzdD9ak6jDf-18">
          <mxGeometry x="-0.3364" y="-1" relative="1" as="geometry">
            <mxPoint y="1" as="offset" />
          </mxGeometry>
        </mxCell>
        <mxCell id="R8buzvKy0wzdD9ak6jDf-21" style="edgeStyle=orthogonalEdgeStyle;rounded=0;orthogonalLoop=1;jettySize=auto;html=1;" edge="1" parent="1" source="R8buzvKy0wzdD9ak6jDf-15" target="R8buzvKy0wzdD9ak6jDf-20">
          <mxGeometry relative="1" as="geometry" />
        </mxCell>
        <mxCell id="R8buzvKy0wzdD9ak6jDf-15" value="CONTADOR&amp;lt;=10" style="rhombus;whiteSpace=wrap;html=1;" vertex="1" parent="1">
          <mxGeometry x="290" y="484.5" width="250" height="100" as="geometry" />
        </mxCell>
        <mxCell id="R8buzvKy0wzdD9ak6jDf-23" style="edgeStyle=orthogonalEdgeStyle;rounded=0;orthogonalLoop=1;jettySize=auto;html=1;" edge="1" parent="1" source="R8buzvKy0wzdD9ak6jDf-20" target="R8buzvKy0wzdD9ak6jDf-22">
          <mxGeometry relative="1" as="geometry" />
        </mxCell>
        <mxCell id="R8buzvKy0wzdD9ak6jDf-20" value="RESULTADO=NUMERO1*CONTADOR" style="rounded=0;whiteSpace=wrap;html=1;" vertex="1" parent="1">
          <mxGeometry x="304" y="610" width="220" height="60" as="geometry" />
        </mxCell>
        <mxCell id="R8buzvKy0wzdD9ak6jDf-25" style="edgeStyle=orthogonalEdgeStyle;rounded=0;orthogonalLoop=1;jettySize=auto;html=1;entryX=0.5;entryY=0;entryDx=0;entryDy=0;" edge="1" parent="1" source="R8buzvKy0wzdD9ak6jDf-22" target="R8buzvKy0wzdD9ak6jDf-24">
          <mxGeometry relative="1" as="geometry" />
        </mxCell>
        <mxCell id="R8buzvKy0wzdD9ak6jDf-22" value="NUMERO,*,CONTADOR= RESULTADO" style="shape=document;whiteSpace=wrap;html=1;boundedLbl=1;" vertex="1" parent="1">
          <mxGeometry x="294" y="690" width="240" height="80" as="geometry" />
        </mxCell>
        <mxCell id="R8buzvKy0wzdD9ak6jDf-26" style="edgeStyle=orthogonalEdgeStyle;rounded=0;orthogonalLoop=1;jettySize=auto;html=1;entryX=0;entryY=0.5;entryDx=0;entryDy=0;" edge="1" parent="1" source="R8buzvKy0wzdD9ak6jDf-24" target="R8buzvKy0wzdD9ak6jDf-15">
          <mxGeometry relative="1" as="geometry">
            <mxPoint x="200" y="650" as="targetPoint" />
            <Array as="points">
              <mxPoint x="240" y="830" />
              <mxPoint x="240" y="535" />
            </Array>
          </mxGeometry>
        </mxCell>
        <mxCell id="R8buzvKy0wzdD9ak6jDf-24" value="CONTADOR=CONTADOR+1" style="rounded=0;whiteSpace=wrap;html=1;" vertex="1" parent="1">
          <mxGeometry x="309" y="800" width="210" height="60" as="geometry" />
        </mxCell>
        <mxCell id="R8buzvKy0wzdD9ak6jDf-27" value="FIN" style="ellipse;whiteSpace=wrap;html=1;" vertex="1" parent="1">
          <mxGeometry x="610" y="860" width="120" height="80" as="geometry" />
        </mxCell>
      </root>
    </mxGraphModel>
  </diagram>
</mxfile>
